<svg width="120" height="40" viewBox="0 0 120 40" fill="none" xmlns="http://www.w3.org/2000/svg">
<rect x="0.5" y="0.5" width="119" height="39" rx="19.5" fill="#141414"/>
<rect x="0.5" y="0.5" width="119" height="39" rx="19.5" fill="url(#paint0_linear_32_436)"/>
<rect x="0.5" y="0.5" width="119" height="39" rx="19.5" fill="white" fill-opacity="0.04"/>
<path d="M23.25 26.75V20.75H17.25V19.25H23.25V13.25H24.75V19.25H30.75V20.75H24.75V26.75H23.25Z" fill="white"/>
<path d="M44.35 25L48.144 15.2H49.684L53.45 25H51.84L49.6 19.092C49.572 19.0267 49.516 18.868 49.432 18.616C49.3573 18.364 49.2687 18.084 49.166 17.776C49.0633 17.468 48.97 17.188 48.886 16.936C48.802 16.6747 48.746 16.5067 48.718 16.432L49.04 16.418C48.984 16.5767 48.914 16.7773 48.83 17.02C48.7553 17.2627 48.6713 17.5193 48.578 17.79C48.494 18.0607 48.41 18.3173 48.326 18.56C48.242 18.7933 48.172 18.9893 48.116 19.148L45.89 25H44.35ZM46.03 22.564L46.59 21.108H51.042L51.686 22.564H46.03ZM57.7433 25.14C57.0713 25.14 56.4693 24.9767 55.9373 24.65C55.4146 24.314 54.9993 23.8613 54.6913 23.292C54.3833 22.7133 54.2293 22.0553 54.2293 21.318C54.2293 20.5807 54.3786 19.9273 54.6773 19.358C54.9853 18.7793 55.4006 18.3267 55.9233 18C56.446 17.664 57.0386 17.496 57.7013 17.496C58.0653 17.496 58.4153 17.5567 58.7513 17.678C59.0966 17.79 59.4046 17.9487 59.6753 18.154C59.946 18.35 60.156 18.5693 60.3053 18.812C60.464 19.0453 60.5433 19.2833 60.5433 19.526L60.1233 19.554V14.64H61.5653V25H60.1233V23.25H60.4033C60.4033 23.474 60.3286 23.698 60.1793 23.922C60.03 24.1367 59.8293 24.3373 59.5773 24.524C59.3346 24.7107 59.05 24.86 58.7233 24.972C58.406 25.084 58.0793 25.14 57.7433 25.14ZM57.9393 23.894C58.378 23.894 58.7653 23.782 59.1013 23.558C59.4373 23.334 59.6986 23.0307 59.8853 22.648C60.0813 22.256 60.1793 21.8127 60.1793 21.318C60.1793 20.8233 60.0813 20.3847 59.8853 20.002C59.6986 19.61 59.4373 19.302 59.1013 19.078C58.7653 18.854 58.378 18.742 57.9393 18.742C57.5006 18.742 57.1133 18.854 56.7773 19.078C56.4413 19.302 56.1753 19.61 55.9793 20.002C55.7926 20.3847 55.6993 20.8233 55.6993 21.318C55.6993 21.8127 55.7926 22.256 55.9793 22.648C56.1753 23.0307 56.4413 23.334 56.7773 23.558C57.1133 23.782 57.5006 23.894 57.9393 23.894ZM66.7563 25.14C66.0843 25.14 65.4823 24.9767 64.9503 24.65C64.4277 24.314 64.0123 23.8613 63.7043 23.292C63.3963 22.7133 63.2423 22.0553 63.2423 21.318C63.2423 20.5807 63.3917 19.9273 63.6903 19.358C63.9983 18.7793 64.4137 18.3267 64.9363 18C65.459 17.664 66.0517 17.496 66.7143 17.496C67.0783 17.496 67.4283 17.5567 67.7643 17.678C68.1097 17.79 68.4177 17.9487 68.6883 18.154C68.959 18.35 69.169 18.5693 69.3183 18.812C69.477 19.0453 69.5563 19.2833 69.5563 19.526L69.1363 19.554V14.64H70.5783V25H69.1363V23.25H69.4163C69.4163 23.474 69.3417 23.698 69.1923 23.922C69.043 24.1367 68.8423 24.3373 68.5903 24.524C68.3477 24.7107 68.063 24.86 67.7363 24.972C67.419 25.084 67.0923 25.14 66.7563 25.14ZM66.9523 23.894C67.391 23.894 67.7783 23.782 68.1143 23.558C68.4503 23.334 68.7117 23.0307 68.8983 22.648C69.0943 22.256 69.1923 21.8127 69.1923 21.318C69.1923 20.8233 69.0943 20.3847 68.8983 20.002C68.7117 19.61 68.4503 19.302 68.1143 19.078C67.7783 18.854 67.391 18.742 66.9523 18.742C66.5137 18.742 66.1263 18.854 65.7903 19.078C65.4543 19.302 65.1883 19.61 64.9923 20.002C64.8057 20.3847 64.7123 20.8233 64.7123 21.318C64.7123 21.8127 64.8057 22.256 64.9923 22.648C65.1883 23.0307 65.4543 23.334 65.7903 23.558C66.1263 23.782 66.5137 23.894 66.9523 23.894ZM76.7672 25V17.65H78.2092V19.162L77.9572 19.33C78.0506 19.0033 78.2326 18.7047 78.5032 18.434C78.7739 18.154 79.0959 17.93 79.4692 17.762C79.8426 17.5847 80.2252 17.496 80.6172 17.496C81.1772 17.496 81.6439 17.608 82.0172 17.832C82.3906 18.0467 82.6706 18.378 82.8572 18.826C83.0439 19.274 83.1372 19.8387 83.1372 20.52V25H81.6952V20.618C81.6952 20.198 81.6392 19.8527 81.5272 19.582C81.4152 19.302 81.2426 19.1013 81.0092 18.98C80.7759 18.8493 80.4866 18.7933 80.1412 18.812C79.8612 18.812 79.6046 18.8587 79.3712 18.952C79.1379 19.036 78.9326 19.1573 78.7552 19.316C78.5872 19.4747 78.4519 19.6613 78.3492 19.876C78.2559 20.0813 78.2092 20.3053 78.2092 20.548V25H77.4952C77.3739 25 77.2526 25 77.1312 25C77.0099 25 76.8886 25 76.7672 25ZM88.6634 25.14C87.9074 25.14 87.2354 24.9813 86.6474 24.664C86.0687 24.3373 85.6114 23.894 85.2754 23.334C84.9487 22.774 84.7854 22.13 84.7854 21.402C84.7854 20.8233 84.8787 20.296 85.0654 19.82C85.2521 19.344 85.5087 18.9333 85.8354 18.588C86.1714 18.2333 86.5681 17.9627 87.0254 17.776C87.4921 17.58 87.9961 17.482 88.5374 17.482C89.0134 17.482 89.4567 17.5753 89.8674 17.762C90.2781 17.9393 90.6327 18.1867 90.9314 18.504C91.2394 18.8213 91.4727 19.1993 91.6314 19.638C91.7994 20.0673 91.8787 20.5387 91.8694 21.052L91.8554 21.668H85.8494L85.5274 20.52H90.6094L90.3994 20.758V20.422C90.3714 20.114 90.2687 19.8387 90.0914 19.596C89.9141 19.3533 89.6901 19.162 89.4194 19.022C89.1487 18.882 88.8547 18.812 88.5374 18.812C88.0334 18.812 87.6087 18.91 87.2634 19.106C86.9181 19.2927 86.6567 19.5727 86.4794 19.946C86.3021 20.31 86.2134 20.7627 86.2134 21.304C86.2134 21.8173 86.3207 22.2653 86.5354 22.648C86.7501 23.0213 87.0534 23.3107 87.4454 23.516C87.8374 23.7213 88.2901 23.824 88.8034 23.824C89.1674 23.824 89.5034 23.7633 89.8114 23.642C90.1287 23.5207 90.4694 23.3013 90.8334 22.984L91.5614 24.006C91.3374 24.23 91.0621 24.426 90.7354 24.594C90.4181 24.762 90.0774 24.8973 89.7134 25C89.3587 25.0933 89.0087 25.14 88.6634 25.14ZM95.2458 25L92.7398 17.65L94.1958 17.636L95.9878 23.138L95.6658 23.11L97.6118 18.812H98.4798L100.44 23.124L100.062 23.152L101.868 17.65H103.324L100.846 25H99.8518L97.8078 20.324L98.1298 20.366L96.2258 25H95.2458Z" fill="white"/>
<rect x="0.5" y="0.5" width="119" height="39" rx="19.5" stroke="url(#paint1_linear_32_436)"/>
<defs>
<linearGradient id="paint0_linear_32_436" x1="60" y1="0" x2="60" y2="40" gradientUnits="userSpaceOnUse">
<stop stop-color="#282828" stop-opacity="0.7"/>
<stop offset="1" stop-color="#282828"/>
</linearGradient>
<linearGradient id="paint1_linear_32_436" x1="60" y1="0" x2="60" y2="40" gradientUnits="userSpaceOnUse">
<stop stop-color="#3C3C3C"/>
<stop offset="1" stop-color="#3C3C3C" stop-opacity="0"/>
</linearGradient>
</defs>
</svg>
